<svg xmlns="http://www.w3.org/2000/svg" viewBox="0 0 500 500"><g transform="translate(-4.361 -560.033)"><path d="M232.84 614.967A154.048 154.048 0 0 0 78.792 769.014 154.048 154.048 0 0 0 232.84 923.062a154.048 154.048 0 0 0 154.048-154.048A154.048 154.048 0 0 0 232.84 614.967Zm0 26.776a129.958 127.27 0 0 1 129.958 127.27A129.958 127.27 0 0 1 232.84 896.285a129.958 127.27 0 0 1-129.958-127.27 129.958 127.27 0 0 1 129.958-127.27Z" style="opacity:1;fill:#2b0000;fill-opacity:1;stroke:none;stroke-opacity:1"/><rect ry="18.083" rx="33.249" transform="matrix(.65317 .75721 -.6069 .79479 0 0)" y="319.554" x="794.878" height="36.167" width="173.027" style="opacity:1;fill:#2b0000;fill-opacity:1;stroke:none;stroke-opacity:1"/></g></svg>